<svg width="176.4" height="70" viewBox="0 0 176.4 70" xmlns="http://www.w3.org/2000/svg"><g id="svgGroup" stroke-linecap="round" fill-rule="evenodd" font-size="9pt" stroke="#000" stroke-width="0.25mm" fill="black" style="stroke:#000;stroke-width:0.25mm;fill:black"><path d="M 166.9 70 L 166.9 12.1 L 148.2 54.2 L 138.8 54.2 L 120 12.1 L 120 70 L 111 70 L 111 0 L 124.3 0 L 143.7 44.3 L 162.8 0 L 176.4 0 L 176.4 70 L 166.9 70 Z M 0 70 L 0 0 L 42 0 L 42 8.2 L 9.5 8.2 L 9.5 29.5 L 37.5 29.5 L 37.5 37.5 L 9.5 37.5 L 9.5 61.8 L 42 61.8 L 42 70 L 0 70 Z M 55.5 70 L 55.5 0 L 97.5 0 L 97.5 8.2 L 65 8.2 L 65 29.5 L 93 29.5 L 93 37.5 L 65 37.5 L 65 61.8 L 97.5 61.8 L 97.5 70 L 55.5 70 Z" vector-effect="non-scaling-stroke"/></g></svg>